<?xml version="1.0" encoding="utf-8"?>
<!-- Generator: Adobe Illustrator 24.1.2, SVG Export Plug-In . SVG Version: 6.00 Build 0)  -->
<svg version="1.1" id="Слой_1" xmlns="http://www.w3.org/2000/svg" xmlns:xlink="http://www.w3.org/1999/xlink" x="0px" y="0px"
	 viewBox="0 0 1080 80" style="enable-background:new 0 0 1080 80;" xml:space="preserve">
<style type="text/css">
	.st0{fill-rule:evenodd;clip-rule:evenodd;fill:#FFFFFF;}
</style>
<path id="path4191" class="st0" d="M551,0c-15.8-0.1-28.6,4-38.9,11.9c-10.4,7.9-15.6,17.6-15.6,29.6c0,9.9,5.2,18.9,13.5,26
	c10.1,8.6,24.1,12.5,41.2,12.5c7.2,0,14.6-1.2,20.2-2.7c8.3-2.1,19.2-7.1,22.5-14.4l-0.2-10.8c-0.2-7.5,0.3-7.8,8.1-7.9v-2.6h-29.1
	v2.6c3,0,5-0.1,6.9,1.1c1.7,1.3,1.3,7.1,1.3,9.3l-0.1,6.5c-2.5,4.7-8.2,7.3-12.2,8.9c-3.8,1.5-10.6,3.1-17.1,3.2
	c-10.7,0.1-19.1-2.9-26.1-7.3c-7.1-4.6-14-14.2-14-26.1c0-11.5,7.3-20.9,15.9-26.8c5.6-3.9,15-7.2,24.4-7.1c8.1,0.1,15.6,2,21,5.2
	c6.2,3.4,12.9,10.4,15.4,15.6l2.5-1l-4-16.9c-4.9-3-11.1-5.2-16.9-6.5C563.4,0.8,557,0.1,551,0L551,0z M173.5,1.8
	c-11,0-21.9,0.2-41.7,0.1l-0.1,2.5c2.7,0,3.7-0.1,5.3,1.2c1.5,1.3,1.7,2.7,1.7,7.4v50.6c0,4.3,0.3,8.7-0.6,9.9
	c-1.4,1.6-2.4,1.9-5.8,1.8v2.6H173c11.2,0,29.5-0.3,37-6.2c2.9-1.6,8.2-6.5,8.1-14.9c0-10.2-4.4-13.3-8.4-15.6
	c-3.5-1.9-9.1-3.4-15.7-4.5c5.3-1.8,6.4-2.4,9.8-4.9c3.4-2.5,5.7-7.4,5.7-12.3c0-12.9-14-17-24.7-17.5
	C180.8,1.8,177.1,1.8,173.5,1.8L173.5,1.8z M948.2,1.9L921.5,2v2.3c4.4,0.2,5.7,0.3,6.5,3.4c0.4,1.2,0.3,3.9,0.3,7.6v49.1
	c0,8.9,0.8,11-6.3,11v2.5h26.3l-0.1-2.5c-7.2,0-6.9-2.8-6.9-11V15.3c0-8.8-0.2-11.1,6.8-11.1L948.2,1.9L948.2,1.9z M251,2v2.8
	c2.6,0,3.7,0.1,5.2,1c1.7,1.1,3.9,6,6.4,11.1l32.2,61h10.8c6.7-13.2,17.4-34.7,25.7-50.9c5.6-10.7,9.7-19.3,11.3-21.4
	c1-1.2,3.7-0.8,5.4-0.8V2l-22.5,0.1v2.7c0.2,0,6.5-0.9,5.9,3.2c-0.5,3.2-25.7,50.3-28.8,57.8l-25-47.1c-1.8-3.4-3.3-6-4.1-8.1
	c-2-4.8,1.1-5.8,5.4-5.8V2H251L251,2z M824.2,2.1c-1.6,0-3.3,0-5.1,0c-2.4,0-5,0-7.8,0h-34.4v2.4c4.7,0,6.7,1.4,6.7,6.9V17v41v13.1
	c0,4.1-3,4-6.7,3.9v2.8h26.8V75c-4.4,0-7-0.4-7.1-5.7V47c2.9,0.2,5.5,0,10,0c1.6,0,10.2,0.1,12.8,0c9.8,0,14.3,11.6,19.5,19.8
	c4.4,6.9,2.5,11.1,30.6,11.1c0-0.6-0.2-2-0.2-2.7c-12,0.1-14.3-7.1-19.4-16.3c-4.8-8.4-6.1-13.9-18.6-15.2
	c18.9-3.5,23.8-12.1,23.8-21.9c-0.1-9.9-7.4-16-19.3-18.7C832.9,2.3,829,2.1,824.2,2.1L824.2,2.1z M391.9,2.1v2.4
	c3.8,0,4.8,0.3,5.9,1.8c1.1,1.4,1.1,3.8,1.1,7.9v36.4v18.8c0,4.9-1.9,5.8-6.5,5.9v2.5h67.5l7.8-15.7l-2.5-1
	c-2.6,4.2-8.5,8.3-17.8,8.3h-19.5h-16V10.9c0-3.5,0.6-4.6,1.5-5.5c1.3-1.1,1.9-0.9,5.3-1V2.1L391.9,2.1L391.9,2.1z M678.1,2.1
	l-31.2,59.5c-2.8,5.4-3.9,7.2-5.2,9.7c-1.5,2.6-2.4,4.3-7.5,4.4v2.1h23.3l0.1-2.5c-4.2,0.1-6-0.2-6.1-4c0-1.2,1.1-3.1,2.7-6l4.4-7.7
	h45.1l5.4,9.1c3.5,5.9,2.6,8.1-3.8,8.4v2.7h27.9v-2.9c-6.7,0-6.3-1.8-12.2-12.7L688,2.1L678.1,2.1L678.1,2.1z M810.7,7.6
	c8.3,0,16.6,0.4,21.9,2.9c4.5,2.1,8.3,4.6,8.3,12.1c0,10.6-6.6,13.4-11.5,15.2c-8.7,2.3-23,1.5-32.7,1.6V7.8
	C800.8,7.8,805.7,7.6,810.7,7.6z M174.5,8.2c6.6,0,13,0.3,16.6,2.5c4.6,3,5.7,5.2,5.7,9.7c0,2.8-2.3,7.6-4.6,9.5
	c-5.6,4.5-15.6,4.7-23,4.7h-17.7V8.2h16.5C170,8.2,172.3,8.2,174.5,8.2z M680.7,13.5l19,35.6h-37L680.7,13.5L680.7,13.5z
	 M173.9,41.3c10.9,0,18.7,0.4,24.1,4.4c2.9,2.1,5.7,5.9,5.7,10.4c0,12.5-15.6,13.3-30.9,13.3h-21.4V41.3c5.8,0,11.8,0.1,17.6,0
	C170.7,41.3,172.3,41.3,173.9,41.3L173.9,41.3z"/>
</svg>
