<?xml version="1.0" encoding="utf-8"?>
<!-- Generator: Adobe Illustrator 24.1.2, SVG Export Plug-In . SVG Version: 6.00 Build 0)  -->
<svg version="1.1" id="Слой_1" xmlns="http://www.w3.org/2000/svg" xmlns:xlink="http://www.w3.org/1999/xlink" x="0px" y="0px"
	 viewBox="0 0 1080 80" style="enable-background:new 0 0 1080 80;" xml:space="preserve">
<style type="text/css">
	.st0{fill-rule:evenodd;clip-rule:evenodd;fill:#FFFFFF;}
</style>
<path class="st0" d="M691.2,65.6V43.1h23.6V31.6h-23.6V13.7h29.3V2.2h-41.4v74.9h44.4V65.6H691.2z M658,80l0.1-77.9H646l0.2,49.3
	L593.1,0L593,77.1h12.1l-0.2-47.4L658,80z M571.8,77.1v-75h-12.1l0,75L571.8,77.1L571.8,77.1z M502.6,77.1h42V65.6h-30V2.1h-12.1
	L502.6,77.1L502.6,77.1z M440,77.1h44.4V65.6h-32.3V43.1h23.6V31.6h-23.6V13.7h29.3V2.2H440L440,77.1L440,77.1z M369.3,39.2
	c0-14.3,9.4-27.3,25.5-27.3c7.4,0,14.6,2.8,19.7,7.9l6.4-8.8c-2.4-3-11.4-10.6-26.1-10.6c-22.7,0-38.4,18.1-38.4,39.1
	c0,21.5,16.5,39.4,39.7,39.4c10.2,0,18.7-3.5,25.2-10l-5.6-8.2c-2.8,3-10.1,6.9-19.1,6.9C380.6,67.5,369.3,54.9,369.3,39.2
	L369.3,39.2z"/>
</svg>
