<?xml version="1.0" encoding="utf-8"?>
<!-- Generator: Adobe Illustrator 24.1.2, SVG Export Plug-In . SVG Version: 6.00 Build 0)  -->
<svg version="1.1" id="Слой_1" xmlns="http://www.w3.org/2000/svg" xmlns:xlink="http://www.w3.org/1999/xlink" x="0px" y="0px"
	 viewBox="0 0 1080 80" style="enable-background:new 0 0 1080 80;" xml:space="preserve">
<style type="text/css">
	.st0{fill-rule:evenodd;clip-rule:evenodd;fill:#FFFFFF;}
</style>
<g>
	<path class="st0" d="M343.7,51.8l13.5,7.7C350.4,72,337.2,80,322.3,80c-21.7,0-39.7-16.6-39.7-40s17.9-40,39.7-40
		c14.9,0,28,8,34.8,20.4l-13.5,7.7c-3.9-8-11.8-12.9-21.3-12.9c-13.6,0-23.9,10.1-23.9,24.8s10.3,24.8,23.9,24.8
		C331.8,64.8,339.7,59.9,343.7,51.8 M429.4,78V45.4h-38V78h-15.2V2h15.2v28.3h38V2h15.2V78H429.4 M517.7,46.5l-13.8-32.1l-13.8,32.1
		H517.7z M547.9,78h-16.6l-7.5-17.4H484L476.5,78h-16.6L493.5,2h20.7L547.9,78z M618,78l-40.8-59.9V78h-14.1V2h20.1l34.2,50.4V2
		h14.1V78H618 M660.9,78V2h54.3v14.1H675v16.3h34.8v14.1H675v17.4h42.4V78H660.9 M741.9,78V2h15.2v60.9h40.2V78H741.9"/>
</g>
</svg>
