<?xml version="1.0" encoding="utf-8"?>
<!-- Generator: Adobe Illustrator 24.1.2, SVG Export Plug-In . SVG Version: 6.00 Build 0)  -->
<svg version="1.1" id="Слой_1" xmlns="http://www.w3.org/2000/svg" xmlns:xlink="http://www.w3.org/1999/xlink" x="0px" y="0px"
	 viewBox="0 0 1080 80" style="enable-background:new 0 0 1080 80;" xml:space="preserve">
<style type="text/css">
	.st0{fill:#FFFFFF;}
</style>
<path class="st0" d="M397.7,1.4h37.2c31.9,0,44.5,18.8,44.5,38.6c0,20.2-16,38.2-46.6,38.2h-35c-0.4,0.1-0.8-0.2-0.9-0.6
	c0,0,0-0.1,0-0.1c0-0.4,0.4-0.8,1-0.8h6.5c1.8,0.1,3.3-1.3,3.4-3c0-0.2,0-0.3,0-0.5V6.5c0.2-1.8-1.1-3.3-2.8-3.5c-0.2,0-0.5,0-0.7,0
	h-6.6c-0.4,0-0.8-0.3-0.8-0.7c0,0,0-0.1,0-0.1C396.8,1.9,396.9,1.4,397.7,1.4 M420.9,74.7c0,1.6,0.8,2.2,1.9,2.2h9.9
	c24.3,0,33.1-18.6,33.1-37.2c0-18.6-9.3-36.7-29.8-36.7h-13.4c-0.8,0-1.5,0.6-1.5,1.4c0,0.1,0,0.2,0,0.3L420.9,74.7z M483,1.4
	c-0.6,0-1.1,0.2-1.1,0.7c0,0.4,0.3,0.7,0.7,0.8c0,0,0.1,0,0.1,0h6.5c1.5,0,3,1,3,3.9v66.5c0,1.4-1.1,3.5-2.9,3.5h-6.5
	c-0.4,0-0.8,0.2-0.8,0.6c0,0.1,0,0.1,0,0.2c0,0.2,0,0.6,0.8,0.6h31.6c0.5,0,1.1,0,1.1-0.5c0-0.5-0.1-0.9-0.9-0.9h-6.2
	c-1.8,0-3.2-1.4-3.2-3.2V6.1c-0.1-1.7,1.2-3.1,2.8-3.2c0.2,0,0.4,0,0.6,0h6c0.5,0,0.8-0.3,0.8-0.7s-0.3-0.8-1-0.8L483,1.4L483,1.4z
	 M532.3,39.9c0-21.3,9.5-38.5,27.3-38.5c17.6,0,27.3,17.2,27.3,38.5s-9,38.5-27.3,38.5C541.8,78.4,532.3,61.2,532.3,39.9 M559.6,80
	c25.4,0,41.4-18,41.4-39.9S585.1,0,559.6,0s-41.3,17.8-41.3,39.9S534.7,80,559.6,80 M682,77.9c-10,1.1-15.5-15.3-20.5-23
	c-4.6-6.6-11.7-11.2-19.6-12.8c13-0.8,27.5-4.9,27.5-19.7c0-11.9-7.3-21-34.3-21H604c-0.4,0-0.8,0.2-0.8,0.7c0,0,0,0,0,0.1
	c0,0.4,0.4,0.8,0.8,0.8c0,0,0,0,0,0h7.1c1.5,0,2.9,1,2.9,3.9v66.5c0,1.4-1,3.5-2.9,3.5h-7c-0.4,0-0.8,0.3-0.8,0.7
	c0,0.4,0.4,0.8,0.8,0.8h33c0.5,0,0.9-0.2,0.9-0.7c0-0.5-0.3-0.8-0.9-0.8h-6.7c-1.8,0-3.2-1.4-3.2-3.2V42.2h3.4
	c16.3,0,17.6,17.7,25.7,27.9c5.1,6.4,13,10,21.1,9.8c1.7,0.1,3.4-0.1,5.1-0.4C683.4,79.2,683.6,77.7,682,77.9 M630.5,2.9h4.8
	c8.2,0,21.5,3.2,21.5,18.8c0,14.2-11.8,19.1-22.8,19.1h-7V6.1C627,4.4,628.3,3,630,2.9C630.1,2.9,630.3,2.9,630.5,2.9"/>
</svg>
