<?xml version="1.0" encoding="utf-8"?>
<!-- Generator: Adobe Illustrator 24.1.2, SVG Export Plug-In . SVG Version: 6.00 Build 0)  -->
<svg version="1.1" id="Слой_1" xmlns="http://www.w3.org/2000/svg" xmlns:xlink="http://www.w3.org/1999/xlink" x="0px" y="0px"
	 viewBox="0 0 1080 80" style="enable-background:new 0 0 1080 80;" xml:space="preserve">
<style type="text/css">
	.st0{fill-rule:evenodd;clip-rule:evenodd;fill:#FFFFFF;}
</style>
<path class="st0" d="M778.1,2.7h18c-2,1.6-3.2,3.4-3.2,6v62.1c0,2.6,1.2,4.4,3.2,6h-18c1.9-1.5,3.1-3.4,3.1-6V8.8
	C781.2,6.2,780.1,4.3,778.1,2.7 M360,29.4c-2.9-6.3-6.2-12.6-11.6-17.1c-5.8-4.9-13.1-7.8-20.7-7.8c-20.2,0-29.2,18.2-29.2,36.2
	c0,17.3,8.6,34.9,28.1,34.9c7.9,0,15.7-3.4,20.6-9.7v-14c0-3.8-1.2-6.2-4.2-8.5h20.6c-2.2,2.5-3.5,5-3.5,8.5v14
	c-9.4,8.8-21.2,14.2-34.2,14.2c-23,0-41.9-16.9-41.9-40.5C283.9,16,302.5,0,325.2,0c14.1,0,25.6,5.2,34.8,15.6V29.4L360,29.4z
	 M410.6,2.7H430c-2.7,1.9-3.5,4.1-3.5,7.4v45.3c0,12.4,14.6,18.5,25.3,18.5c10.5,0,24.2-6.1,24.2-18.3V10.1c0-3-0.8-5.1-2.8-7.4
	h10.6c-2.1,2.2-2.9,4.4-2.9,7.4v45.6c0,16.4-19.3,22.7-32.7,22.7c-13.8,0-33.9-6.1-33.9-22.9V10.1C414.1,7,412.9,4.7,410.6,2.7
	 M605.2,29.7c-2.6-6.5-5.6-12.3-11-17c-5.7-5.1-12.7-8.3-20.5-8.3c-20,0-30.2,17.5-30.2,35.6c0,18.2,10.6,35.5,30.4,35.5
	c14.7,0,25.2-10.3,31.3-22.8v13.5c-9.1,9-20.9,13.6-33.8,13.6c-23.9,0-41.8-15.4-41.8-40.1c0-23.9,17.2-39.7,40.6-39.7
	c13,0,25.6,4.5,35,13.4V29.7z M730.6,29.7c-2.6-6.5-5.7-12.3-11-17c-5.7-5.1-12.7-8.3-20.5-8.3c-20,0-30.2,17.5-30.2,35.6
	c0,18.2,10.6,35.5,30.3,35.5c14.7,0,25.2-10.3,31.3-22.8v13.5c-9.1,9-20.9,13.6-33.8,13.6c-23.9,0-41.8-15.4-41.8-40.1
	c0-23.9,17.2-39.7,40.6-39.7c13,0,25.6,4.5,35,13.4L730.6,29.7L730.6,29.7z"/>
</svg>
