<?xml version="1.0" encoding="utf-8"?>
<!-- Generator: Adobe Illustrator 24.1.2, SVG Export Plug-In . SVG Version: 6.00 Build 0)  -->
<svg version="1.1" id="Слой_1" xmlns="http://www.w3.org/2000/svg" xmlns:xlink="http://www.w3.org/1999/xlink" x="0px" y="0px"
	 viewBox="0 0 1080 80" style="enable-background:new 0 0 1080 80;" xml:space="preserve">
<style type="text/css">
	.st0{fill:#FFFFFF;}
</style>
<g>
	<path class="st0" d="M353.7,19.2h8.7v16.7h-31V19.2h8.7V9.4h-27.6v9.8h8.8v49h-8.8v9.7h27.6v-9.7h-8.7V45.4h31v22.8h-8.7v9.7h27.6
		v-9.7h-8.8v-49h8.8V9.4h-27.6 M686.1,68.2h-27.2V45.3h23.4v-9.7h-23.4V19.2h27.4v9.4h9.6V9.4h-56.3v9.8h9.2v49h-9.2v9.7h56.4V55.1
		h-10 M450.7,55.1h-10v13.1h-27.2V45.3h23.4v-9.7h-23.4V19.2h27.4v9.4h9.6V9.4h-56.3v9.8h9.2v49h-9.2v9.7h56.4 M661.6,6h19.7l-5-6
		H656 M751,38.7c-6.9-2-11.8-1.5-18.8-3.9c-6.3-2.1-7.6-6-7.6-8.6c0-2.6,2.8-9.3,12.7-9.3c10,0,16.5,6.6,16.8,12.4l0,0v0h9.6v-20
		h-9.2v4.4l0.3,1.4c-0.1-0.2-0.3-0.7-1.3-1.7c0,0,0,0,0-0.1c-2.9-2.6-8.5-5.5-16.9-5.5c-10.2,0-22.2,6.3-22.2,18.5
		c0,11.9,8.6,16.1,15.9,18c7.3,1.9,11,1.9,17.1,3.6c6.1,1.6,10,5.3,10,10.7c0,5.1-3.2,11.9-16,11.9c-12.9,0-18-6.9-19.5-16.9l-0.1,0
		h-9.1v24.2h9.5v-4.5l0,0l-0.3-1.2c0,0,0.3,0.8,1.4,1.6l0.1,0.1c4.8,3.7,11.1,6.1,19.2,6.1c9,0,24.8-4.6,24.8-21
		C767.4,47.2,761.2,41.7,751,38.7L751,38.7z M598.8,68.2v9.7h27.9v-9.7h-9.2v-49h9.2V9.4h-25l-16.5,40l-0.3,2l-0.3-2L568,9.4h-25
		v9.8h9.1v49h-9.2v9.7H571v-9.7h-8.7V23.1l0.1-3l0.8,2.4l19.1,45.6h5.4l19.1-45.6l0.7-2.4l0.1,2.7v45.4"/>
	<path class="st0" d="M523.1,68.3l-0.3-14.1v0c0-4-2.7-8.8-6.4-11c-0.9-0.5-1.9-0.9-3-1c0.9,0.1,2.1,0,3.3-0.5c0,0,0.1,0,0.1,0
		c3.7-1.7,8.3-6.5,8.3-14.6c0-6-2.6-10.9-7-14.1c-4.1-3-9-3.7-13.9-3.7h-38.4v9.8h8.6v49.1h-8.6V78h27.2v-9.7h-8.5V46.6h18.8
		c6.5,0.1,9,4.4,9.1,8l0.5,23.3h18.8v-9.7H523.1z M505.5,37.2L505.5,37.2l-20.9,0V19.1h19.7c2,0,4.6-0.1,6.6,0.9
		c2.4,1.2,4.7,3.9,4.7,8.2C515.7,33.3,511.1,37.2,505.5,37.2z"/>
</g>
</svg>
