<?xml version="1.0" encoding="utf-8"?>
<!-- Generator: Adobe Illustrator 24.1.2, SVG Export Plug-In . SVG Version: 6.00 Build 0)  -->
<svg version="1.1" id="Слой_1" xmlns="http://www.w3.org/2000/svg" xmlns:xlink="http://www.w3.org/1999/xlink" x="0px" y="0px"
	 viewBox="0 0 1080 80" style="enable-background:new 0 0 1080 80;" xml:space="preserve">
<style type="text/css">
	.st0{fill-rule:evenodd;clip-rule:evenodd;fill:#FFFFFF;}
</style>
<path class="st0" d="M561.6,78.8H535V2.1h26.7l23.5,40l0-40h26.6v76.7h-26.6L561.5,40L561.6,78.8L561.6,78.8z M264.1,80
	c15.4,0,26.1-11,26.1-26.2V2.1H263v46.2c0,3.3-1.1,8.2-5.9,9c-3.2,0.1-4.4-0.3-7-0.7v22.2C252.2,79.4,260.4,80.1,264.1,80z
	 M297.1,2.1h27.9v76.7h-27.9V2.1z M331.5,2.1h27.9v52.1h23.4v24.6h-51.3V2.1z M418.9,60.7c2.7,0,8.1-0.8,8.2-4.2
	c0.1-3.5-3.5-5.2-6-5.8l-6.4-1.2C403.7,47.6,394,40,394,28c0-18.2,16.8-28,33.5-28c8.7,0,17.8,1.9,25.4,6.5l-6.9,16.9
	c-3.9-2.5-11.9-4.3-17.9-4.3c-2.4,0-6.8,1.6-6.8,4.7c0,2.8,4.1,3.7,6.2,4.2l6.9,1.4c11.8,2.6,20.3,10.2,20.3,23.2
	c0,18.3-16.7,27.4-33.3,27.4c-9.7,0-21.5-2.6-30.1-7.2l6.4-19.3C400.7,55.7,408.9,60,418.9,60.7L418.9,60.7z M697.7,2.1h51.6V23
	h-23.5v7.3h21.5v19.9h-21.5v7.5h24.3v20.9h-52.4V2.1z M647.9,55.8h2.6c9.3,0,16.4-4.3,16.4-14.3c0-10.8-6.2-15.4-16.4-15.4h-2.6
	V55.8z M620,78.8V2.1h32.5c25.7,0,42.1,11.3,42.1,39.5c0,22.8-12.7,37.2-35.2,37.2L620,78.8L620,78.8L620,78.8z M785.1,54.1h0.5
	l12.2,24.6h32.1l-19-31.8c10.4-3.5,15.7-12.3,15.7-19.9c0-19.3-10.4-24.9-27.7-24.9h-41.1v76.7h27.3L785.1,54.1L785.1,54.1
	L785.1,54.1z M785.1,23h4c4.8,0,9,0.7,9,6.6c0,5.7-4.6,6.4-9.2,6.4h-3.8L785.1,23L785.1,23z M489.3,51l3.7-12.7l3.7,12.7H489.3z
	 M483.9,69.2H502l2.2,9.6h29.5L507.1,2.1h-28.3l-26.6,76.7h29.5L483.9,69.2L483.9,69.2z"/>
</svg>
