<?xml version="1.0" encoding="utf-8"?>
<!-- Generator: Adobe Illustrator 24.1.2, SVG Export Plug-In . SVG Version: 6.00 Build 0)  -->
<svg version="1.1" id="Слой_1" xmlns="http://www.w3.org/2000/svg" xmlns:xlink="http://www.w3.org/1999/xlink" x="0px" y="0px"
	 viewBox="0 0 1080 80" style="enable-background:new 0 0 1080 80;" xml:space="preserve">
<style type="text/css">
	.st0{fill:#FFFFFF;}
</style>
<g>
	<path class="st0" d="M412.4,68.1c-5.7,3.1-17.2,4.7-22.2,4.7h-8.5V9.3c0.1-1,0.6-2,1.3-2.8l3.3-4.1c0.1-0.4,0.1-0.9,0-1.3h-22.1
		c-0.1,0.4-0.1,0.9,0,1.3l3.3,4.1c0.7,0.7,1.1,1.7,1.3,2.8v62.4c0,1-1.1,2.6-1.7,3.1l-3,2.7c-0.1,0.6-0.1,1,0,1.6h47.6l2.7-11
		C413.6,67.9,413,67.9,412.4,68.1L412.4,68.1z"/>
	<path class="st0" d="M492.2,38.3C491.7,17.8,475.9,0,454.2,0c-5.8,0-11.7,1.3-16.9,3.8c-13.8,6.8-23.9,22.1-23.9,37.4
		c0,21.6,17.8,38.7,38,38.7c5.3,0,10.4-0.7,15.1-2.7C481.3,71,491.9,57.4,492.2,38.3L492.2,38.3z M439.5,9.1
		c24.3-4.8,40,12.5,40,33.3c0,11.1-4.8,22.6-14.4,29.8c-22.9,3.3-38.6-12.4-38.6-34.3C426.6,26.6,430.3,15.9,439.5,9.1L439.5,9.1z
		 M547.5,69.3c-4.7,2.3-18.4,3.4-23.3,3.4h-7.4V45h13.5l4.3,2.6c0.6,0.1,1,0.1,1.6,0V34.5c-0.6-0.1-1-0.1-1.6,0l-4.4,1.9h-13.2v-29
		h19.2l10.3,2.3c0.6,0.1,1.1,0.1,1.7,0L546.2,1h-46.8c-0.1,0.4-0.1,0.9,0,1.3l3.3,4.1c0.7,0.7,1.1,1.7,1.3,2.8v62.4
		c0,1-1.1,2.6-1.9,3.1l-3,2.7c-0.1,0.6-0.1,1,0,1.6h47.6l2.7-9.7C548.7,69.2,548.1,69.2,547.5,69.3L547.5,69.3z M714,69.3
		c-4.7,2.3-18.4,3.4-23.3,3.4h-7.4V45h13.5l4.3,2.6c0.6,0.1,1,0.1,1.6,0V34.5c-0.6-0.1-1-0.1-1.6,0l-4.4,1.9h-13.2v-29h19.2
		l10.3,2.3c0.6,0.1,1.1,0.1,1.9,0L712.9,1h-46.8c-0.1,0.4-0.1,0.9,0,1.3l3.3,4.1c0.7,0.7,1.1,1.7,1.3,2.8v62.4c0,1-1.1,2.6-1.7,3.1
		l-3,2.7c-0.1,0.6-0.1,1,0,1.6h47.6l2.7-9.7C715.2,69.2,714.6,69.2,714,69.3L714,69.3z M660.5,1H642c-0.1,0.4-0.1,0.9,0,1.3l3.4,3.3
		c0.7,0.7,1.6,1.7,1.3,2.7l0,0l-16.4,50.8L613.9,1.1c-2.8-0.3-5.7-0.3-8.4,0l-19.6,57.8L572.4,8.8c-0.3-0.7-0.1-1.6,0.3-2.3l3.8-4.1
		c0.1-0.4,0.1-0.9,0-1.3h-22.8c-0.1,0.4-0.1,0.9,0,1.3l3.8,4.1c0.6,0.7,1,1.4,1.3,2.3l0,0L578.4,79c1,0.3,6.8,0.3,8.1,0l19.6-58.5
		L623.2,79c2.7,0.3,5.4,0.3,8,0L654,10c0.3-1,0.9-2,1.7-2.8l4.8-4.7C660.6,1.9,660.6,1.4,660.5,1L660.5,1z"/>
</g>
</svg>
