<?xml version="1.0" encoding="utf-8"?>
<!-- Generator: Adobe Illustrator 24.1.2, SVG Export Plug-In . SVG Version: 6.00 Build 0)  -->
<svg version="1.1" id="Слой_1" xmlns="http://www.w3.org/2000/svg" xmlns:xlink="http://www.w3.org/1999/xlink" x="0px" y="0px"
	 viewBox="0 0 1080 80" style="enable-background:new 0 0 1080 80;" xml:space="preserve">
<style type="text/css">
	.st0{fill:#FCFCFC;}
</style>
<path class="st0" d="M728.1,54.3v3.2h23.3v-3.2c-4.7,0-5.6-1-6.6-2.4c-1-1.6-1.6-6.6-1.8-37.9c20.3,19,31.9,29.1,47.7,44.7h1.8
	C792.1,48,792,37.4,791.9,27c-0.2-15.8-0.2-19,1.4-20.8c1.4-1.5,4.3-1.7,6.9-1.7V1.3h-23.5v3.2c4.3,0,5.9,1,6.9,2.5
	c1,1.4,1.1,3,1.1,26v4.3C771.1,25,757.6,12.9,745,1.3h-16.7v3.4c4.1,0.5,5.2,1.3,6.2,2.2c1.2,1.3,1.4,3.6,1.4,22.5
	c0,16-0.3,21-1.9,22.9C732.3,54.1,730.4,54.3,728.1,54.3 M649,54.3v3.2h52.4l0.2-17.1h-3.4c-0.8,4.1-1.5,6.5-3.1,8.4
	c-1.9,2.3-5.7,3.2-17.7,3.2h-9v-21c5.9,0.1,8,0.3,9.2,1.2c1.4,0.9,1.8,2.5,2.3,6.8h3.8V17.4h-3.8c-0.4,4.3-1,5.3-2.3,6.3
	c-1,0.7-2.2,1.2-9.2,1.3V6.4h7.1c11.1,0,14.1,0.6,15.9,3.2c0.9,1.3,1.6,2.6,2.3,5.1h3.4l-0.9-13.5h-46.8v3.2
	c4.4,0.4,5.7,0.6,6.7,1.6c1.2,1.3,1.1,3.5,1.1,23.3c0,15.8-0.2,20.2-1.9,22.3C653.8,53.5,651.5,54.2,649,54.3 M571.3,54.3v3.2h52.4
	l0.2-17.1h-3.4c-0.8,4.1-1.5,6.5-3.1,8.4c-1.9,2.3-5.7,3.2-17.7,3.2h-9v-21c5.9,0.1,8,0.3,9.2,1.2c1.4,0.9,1.8,2.5,2.3,6.8h3.8V17.4
	h-3.8c-0.4,4.3-1,5.3-2.3,6.3c-1,0.7-2.2,1.2-9.2,1.3V6.4h7.1c11.1,0,14.1,0.6,15.9,3.2c0.9,1.3,1.6,2.6,2.3,5.1h3.4l-0.9-13.5
	h-46.8v3.2c4.4,0.4,5.7,0.6,6.7,1.6c1.2,1.3,1.1,3.5,1.1,23.3c0,15.8-0.2,20.2-1.9,22.3C576.1,53.5,573.7,54.2,571.3,54.3
	 M511.9,59.3c18.1,0,27.1-7.9,27.1-23V18.8c0-7.3-0.2-11.2,0.9-12.8c0.9-1.4,2.4-1.4,6.4-1.5V1.3h-21.7v3.2c4,0.1,4.9,0.2,5.9,1.5
	c1.1,1.4,1,4.9,1,29.3c0,11.4-5.3,16.5-17.3,16.5c-11.2,0-16.1-5.1-16.1-16.5v-15c0-11.4,0.1-12.9,0.7-14.1c0.9-1.7,2.7-1.6,6.2-1.7
	V1.3h-25.7v3.2c3.5,0.2,5.4,0.1,6.3,2.1c1,1.9,0.6,8,0.6,22.5v8C486.5,51.8,495,59.3,511.9,59.3 M404.2,29.9
	c0,9.1,6.3,15.5,14.9,15.5c5.9,0,10.5-3,14.1-9.9l-2.6-1.8c-2.7,3.6-5.4,5.3-8.8,5.3c-5.2,0-8.4-4.1-8.4-12c0-5.9,2.3-9.5,6.2-9.5
	c5.5,0,2.6,8.1,8.4,8.1c2.5,0,4.3-1.6,4.3-4.4c0-4.6-4.8-7.6-11.6-7.6C410.6,13.7,404.2,20.2,404.2,29.9 M395.4,29.7
	c0-15.6,8.2-24.6,23.5-24.6c15.2,0,23.4,8.9,23.4,24.6c0,16.1-8.7,25.1-23.4,25.1C404.1,54.9,395.4,45.8,395.4,29.7 M419,60
	c23.4,0,35.6-16.2,35.6-31.2C454.5,12.4,440,0,418.9,0c-20.9,0-35.2,12.1-35.2,30c0,15.4,10.6,25.6,25,28.8l-9.6,7.4
	c-1.1,0.9-1.6,1.8-1.6,2.7c0,1.6,1.4,2.9,2.7,2.9c2.7,0,5-4.8,10-4.8c7.4,0,12,12.9,25.9,12.9c8.7,0,15.2-5.9,18.2-15.1l-3.2-1.4
	c-2.1,3.5-5.5,5.7-12.4,5.7c-9.5,0-14.9-4.9-26.8-5.3c1.4-1.3,3.1-2.7,5-4C417.6,60,418.2,60,419,60 M316.9,58.5h1.4
	c4.1-9,8.6-17.7,13.3-26.4c3.1-6.4,6.9-13.1,10.4-19.9v17.3c0,14.8-0.3,21-1.5,22.9c-0.9,1.4-2.9,1.9-6.1,2v3.2h26.8v-3.2
	c-3.6-0.2-5.6-0.6-6.4-2c-1-1.8-1.5-8.1-1.5-22.9c0-19-0.2-20.8,0.8-22.8c0.8-1.6,2.6-1.9,6.2-2.1V1.3h-20.2
	c-5.8,13.1-13,25.9-20.1,39L300,1.3h-20v3.2c3.8,0.1,5.5,0.6,6.5,1.8c1.4,1.7,1.4,3.9,1.1,23.1c-0.2,14.9-0.4,21-2,22.9
	c-1.6,1.8-3.6,1.9-5.9,2v3.2h22.9v-3.2c-4-0.2-6-0.6-7-2.1c-1-1.8-1.4-7.9-1.4-39.6C300.6,25.5,313.5,51.3,316.9,58.5"/>
</svg>
