<?xml version="1.0" encoding="utf-8"?>
<!-- Generator: Adobe Illustrator 24.1.2, SVG Export Plug-In . SVG Version: 6.00 Build 0)  -->
<svg version="1.1" id="Слой_1" xmlns="http://www.w3.org/2000/svg" xmlns:xlink="http://www.w3.org/1999/xlink" x="0px" y="0px"
	 viewBox="0 0 1080 80" style="enable-background:new 0 0 1080 80;" xml:space="preserve">
<style type="text/css">
	.st0{fill:#FFFFFF;}
</style>
<g>
	<path class="st0" d="M282.2,61h-35.9L239,80h-10.6l31.7-80h9.7l31.1,80h-11.2L282.2,61z M249.6,52.2h29.3l-14.8-38.3L249.6,52.2z"
		/>
	<path class="st0" d="M196.8,8.5v29h13.9c0,0,2.4,0,3.9,0c4.2,0,7.2-0.9,9.7-3.3c2.7-2.4,3.9-6.6,3.9-10.9s-1.2-8.2-3.9-11.2
		s-7.8-3.3-8.8-3.3c-0.9,0-1.5,0-1.5,0h-17.2V8.5z M186.5,0H214c4.2,0,11.5,0.9,16.6,5.1c6.9,5.4,8.2,13,8.2,17.8s-1.2,11.5-6,16
		c-6.3,6-12.7,6.9-22,6.9h-13.9V80h-10.3V0z"/>
	<g>
		<polygon class="st0" points="552.7,0 562.9,0 562.9,34.4 598.9,34.4 598.9,0 608.8,0 608.8,80 598.9,80 598.9,43.2 562.9,43.2 
			562.9,80 552.7,80 		"/>
	</g>
	<g>
		<g>
			<rect x="624.2" class="st0" width="10.3" height="80"/>
			<path class="st0" d="M629.1,40.2"/>
		</g>
	</g>
	<g>
		<polygon class="st0" points="649.3,0 659.5,0 659.5,71.2 694.3,71.2 694.3,80 649.3,80 		"/>
	</g>
	<g>
		<polygon class="st0" points="345,0 345,8.8 320.5,8.8 320.5,80 310.6,80 310.6,8.8 286.1,8.8 286.1,0 		"/>
	</g>
	<g>
		<polygon class="st0" points="396.9,0 391.8,8.8 361.6,8.8 361.6,33.8 390,33.8 390,42.9 361.6,42.9 361.6,71.2 391.2,71.2 
			396.3,80 351.3,80 351.3,0 		"/>
	</g>
	<g>
		<polygon class="st0" points="415,37.4 449.4,0 462.1,0 435.8,28.7 462.7,80 451.2,80 428.9,35.9 415,50.7 415,80 405.1,80 
			405.1,0 415,0 		"/>
	</g>
	<path class="st0" d="M502.9,8.5v29h14.2c0,0,2.4,0,3.9,0c4.2,0,7.2-0.9,9.7-3.3c2.7-2.4,3.9-6.6,3.9-10.9s-1.2-8.2-3.9-11.2
		s-7.8-3.3-8.8-3.3c-0.9,0-1.5,0-1.5,0h-17.5C502.9,8.8,502.9,8.5,502.9,8.5z M492.9,0h27.5c4.2,0,11.5,0.9,16.6,5.1
		c6.9,5.4,8.2,13,8.2,17.8s-1.2,11.5-6,16c-6.3,6-12.7,6.9-22,6.9h-14.2V80h-10.3V0H492.9z"/>
	<g>
		<g>
			<rect x="700.9" class="st0" width="10.3" height="80"/>
			<path class="st0" d="M705.7,40.2"/>
		</g>
	</g>
	<path class="st0" d="M736.2,8.5v29h14.2c0,0,2.4,0,3.9,0c4.2,0,7.2-0.9,9.7-3.3c2.7-2.4,3.9-6.6,3.9-10.9s-1.2-8.2-3.9-11.2
		c-2.7-3-7.8-3.3-8.8-3.3s-1.5,0-1.5,0h-17.5V8.5z M726,0h27.5c4.2,0,11.5,0.9,16.6,5.1c6.9,5.4,8.2,13,8.2,17.8s-1.2,11.5-6,16
		c-6.3,6-12.7,6.9-22,6.9h-14.2V80h-10.3L726,0L726,0z"/>
	<path class="st0" d="M797.2,8.5v29h14.2c0,0,2.4,0,3.9,0c4.2,0,7.2-0.9,9.7-3.3c2.7-2.4,3.9-6.6,3.9-10.9s-1.2-8.2-3.9-11.2
		s-7.8-3.3-8.8-3.3c-0.9,0-1.5,0-1.5,0h-17.5V8.5z M786.9,0h27.5c4.2,0,11.5,0.9,16.6,5.1c6.9,5.4,8.2,13,8.2,17.8s-1.2,11.5-6,16
		c-6.3,6-12.7,6.9-22,6.9h-14.2V80h-10.3L786.9,0L786.9,0z"/>
	<g>
		<polygon class="st0" points="893.5,0 888.4,8.8 858.2,8.8 858.2,33.8 886.3,33.8 886.3,42.9 858.2,42.9 858.2,71.2 887.8,71.2 
			892.6,80 847.9,80 847.9,0 		"/>
	</g>
</g>
</svg>
