<?xml version="1.0" encoding="utf-8"?>
<!-- Generator: Adobe Illustrator 24.1.2, SVG Export Plug-In . SVG Version: 6.00 Build 0)  -->
<svg version="1.1" id="Слой_1" xmlns="http://www.w3.org/2000/svg" xmlns:xlink="http://www.w3.org/1999/xlink" x="0px" y="0px"
	 viewBox="0 0 1502.7 80" style="enable-background:new 0 0 1502.7 80;" xml:space="preserve">
<style type="text/css">
	.st0{fill:#FFFFFF;}
</style>
<path class="st0" d="M225.4,39.2c17.3-1.3,26.3-8.7,26.3-19.3c0-10-6.7-19-27.3-19h-34.7v2.6h7.4v73.3h-7.4v2.6h28.9v-2.6H210V39.5
	h0.3L240.5,79h19.3v-2.6H254C254,76.5,225.4,39.2,225.4,39.2z M210,37.6V3.2h10.6c12.9,0,17.3,8.4,17.3,16.4c0,10.9-6.7,18-20.9,18
	C217.1,37.6,210,37.6,210,37.6z M325,0.6h-7.7L290,76.8h-7.1v2.6h21.8v-2.6h-11.6l10.3-28.9h25.4l10,28.9h-8.7v2.6h26.3v-2.6h-4.8
	L325,0.6z M304.4,46.3l11.9-33.1h0.3l11.6,33.1C328.2,46.3,304.4,46.3,304.4,46.3z M442.6,47.9h2.6v31.5h-57.8v-2.6h7.4V3.5h-7.4V1
	h32.1v2.6h-11.9v72.9h17.7C433.3,76.5,435.5,75.2,442.6,47.9z M517.5,1h-34.4v2.6h7.4v72.9h-7.4V79h30.8v-2.2H503V41.1h14.5
	c19.6,0,28.9-8,28.9-19.6S536.1,1,517.5,1z M514.2,39.5H503v-35h12.2c12.5,0,17.7,7.1,17.7,18C532.9,36.3,527.1,39.5,514.2,39.5z
	 M622.8,1h28v3.2h-7.4v72.3h7.4v2.9h-28v-2.9h7.4V39.8h-31.2v36.6h7.7v2.9h-28v-2.9h7.1V4.2h-7.1V1h28v3.2h-7.7v33.4h31.2V4.2h-7.4
	C622.8,4.2,622.8,1,622.8,1z M814.3,47.6h2.6v31.8h-57.8v-2.6h7.4V3.5h-7.4V1h32.1v2.6h-11.9v72.9H797
	C804.7,76.5,806.9,74.9,814.3,47.6z M887.9,0.6h-7.7l-27.6,76.1h-6.7v2.6h21.8v-2.6h-11.6l10.3-28.9h25.4l10,28.9H893v2.6h26.3v-2.6
	h-4.5L887.9,0.6z M867,46.3l11.9-33.1h0.3l11.6,33.1H867L867,46.3z M993.3,0h21.5v3.2h-7.4v55.6c0,12.9-9.3,21.2-23.5,21.2
	c-19.6,0-28.3-7.7-28.3-23.1V2.6h-7.4V0h28.6v3.2h-8.4v56.5c0,13.8,8,18.3,15.7,18.3c11.6,0,19.6-7.1,19.6-19V3.2h-10.6L993.3,0
	L993.3,0z M1083.6,39.2c17.3-1.3,26.3-8.7,26.3-19.3c0-10-6.7-19-27.3-19h-34.7v2.6h7.4v73.3h-7.4v2.6h28.9v-2.6h-9.3V39.5h0.3
	L1098,79h19.3v-2.6h-5.5C1111.8,76.5,1083.6,39.2,1083.6,39.2z M1067.8,37.6V3.2h10.6c12.9,0,17.3,8.4,17.3,16.4
	c0,10.9-6.7,18-20.9,18L1067.8,37.6L1067.8,37.6z M1205,50.1h2.9v29.2h-62v-2.6h7.4V3.5h-7.4V1h60.7v24.7h-2.6
	c-6.4-20.9-8.4-22.5-14.1-22.5h-23.8v33.4h9.3c5.8,0,9-3.2,11.2-15.4h2.6v33.7h-2.6c-2.6-11.9-5.1-15.4-11.2-15.4h-9.3v36.9h20.9
	C1195.4,76.5,1197.9,73.3,1205,50.1L1205,50.1z M1313,1v3.2h-8v75.2h-3.5l-46.6-73.3v70.4h10v2.9h-21.2v-2.9h8V4.2h-8V1h22.8
	l35.3,56.5h0.3V4.2h-9.6V1C1292.4,1,1313,1,1313,1z"/>
</svg>
