<?xml version="1.0" encoding="utf-8"?>
<!-- Generator: Adobe Illustrator 24.1.2, SVG Export Plug-In . SVG Version: 6.00 Build 0)  -->
<svg version="1.1" id="Слой_1" xmlns="http://www.w3.org/2000/svg" xmlns:xlink="http://www.w3.org/1999/xlink" x="0px" y="0px"
	 viewBox="0 0 1080 80" style="enable-background:new 0 0 1080 80;" xml:space="preserve">
<style type="text/css">
	.st0{fill-rule:evenodd;clip-rule:evenodd;fill:#FFFFFF;}
</style>
<path class="st0" d="M313.4,78.7h-13.6V13.7h-26.1V1.3h65.5v12.5h-25.8V78.7z M584,13.7h-43.6v22.8h40.2v12.4h-40.2v29.8H527V1.3
	H584V13.7z M719.6,78.7l-19-29.9h-16.9v29.8h-13.4V1.2h33.9c17.8,0,27.5,8.5,27.5,22.9c0,13.2-7.4,19.9-16.8,22.1l20.4,32.3
	L719.6,78.7z M701.6,13.7h-17.8v22.8h17.9c10.4,0,16.2-4.5,16.2-11.7C718,16.2,711.6,13.7,701.6,13.7z M765.5,78.7h-28.6V1.3h28.8
	c24.7,0,40.6,16.2,40.6,38.6C806.3,61.7,790.6,78.7,765.5,78.7z M765.5,13.7h-15.1v52.6h15.1c16.2,0,26.6-10.7,26.6-26.2
	C792.1,24.8,782.1,13.7,765.5,13.7z M455.3,78.7l-20.8-55.5v55.5h-13.3V1.3h19.2l18.7,49.7l18.6-49.7h19.1v77.3h-13.5V23.1
	l-20.9,55.5H455.3z M376.1,80c-23.5,0-40-17.6-40-40c0-22.2,16.6-40,40.2-40c23.5,0,40,17.6,40,40C416.3,62.2,399.7,80,376.1,80z
	 M376.1,12.5c-15.2,0-25.7,12.1-25.7,27.5c0,15.4,10.7,27.6,25.9,27.6c15.2,0,25.8-12.1,25.8-27.5C402.1,24.6,391.3,12.5,376.1,12.5
	z M625.2,80c-23.5,0-39.9-17.6-39.9-40c0-22.2,16.6-40,40.2-40c23.5,0,40,17.6,40,40C665.4,62.2,648.7,80,625.2,80z M625.2,12.5
	c-15.2,0-25.8,12.1-25.8,27.5c0,15.4,10.7,27.6,26.1,27.6c15.2,0,25.8-12.1,25.8-27.5C651.2,24.6,640.5,12.5,625.2,12.5z"/>
</svg>
