<?xml version="1.0" encoding="utf-8"?>
<!-- Generator: Adobe Illustrator 24.1.2, SVG Export Plug-In . SVG Version: 6.00 Build 0)  -->
<svg version="1.1" id="Слой_1" xmlns="http://www.w3.org/2000/svg" xmlns:xlink="http://www.w3.org/1999/xlink" x="0px" y="0px"
	 viewBox="0 0 1080 80" style="enable-background:new 0 0 1080 80;" xml:space="preserve">
<style type="text/css">
	.st0{fill:#FFFFFF;}
</style>
<path class="st0" d="M695.1,78.4h46v-8.8H705V43.3h34v-8.8h-34V10.4h35.1V1.6h-44.9L695.1,78.4L695.1,78.4z M630.7,78.4h8.8l26-63.4
	v63.3h9.9V1.6H661l-26,63.2L609,1.6h-14.4v76.7h9.9V15L630.7,78.4z M531.7,78.4h46v-8.8h-36.2V43.3h34v-8.8h-34V10.4h35.1V1.6h-44.9
	L531.7,78.4L531.7,78.4z M491.7,78.4h9.9v-68h18.1V1.6h-46v8.8h18.1v68H491.7z M399.5,40c0-17.2,13.3-30.9,29.8-30.9
	c16.7,0,29.8,13.7,29.8,30.9c0,17.1-13.2,30.9-29.8,30.9S399.5,57.1,399.5,40 M429.3,80c22.4,0,40-17.6,40-40s-17.6-40-40-40
	c-22.4,0-40,17.6-40,40S406.9,80,429.3,80 M356.9,78.4h9.9v-68h18.1V1.6h-46v8.8H357L356.9,78.4L356.9,78.4z"/>
</svg>
