<?xml version="1.0" encoding="utf-8"?>
<!-- Generator: Adobe Illustrator 24.1.2, SVG Export Plug-In . SVG Version: 6.00 Build 0)  -->
<svg version="1.1" id="Слой_1" xmlns="http://www.w3.org/2000/svg" xmlns:xlink="http://www.w3.org/1999/xlink" x="0px" y="0px"
	 viewBox="0 0 1012.5 80" style="enable-background:new 0 0 1012.5 80;" xml:space="preserve">
<style type="text/css">
	.st0{fill:#FFFFFF;}
</style>
<g id="Calque_2">
	<g id="Calque_1-2">
		<path id="VCA_logo_75_of_the_initial_size_dektop_version_" class="st0" d="M382.4,40.8v12.3c0,0.5-10.6,5.7-18.9,5.7
			c-7,0.1-13.7-2.7-18.6-7.7c-5.8-5.6-9.1-13.3-9.1-21.4c0-15.5,11.7-29.2,27.5-29.6h0.8c5.8,0,11.5,2.2,15.7,6.2
			c0.7,0.5,1.2,1.1,1.4,1.9v5.6h-0.5c0-0.1,0-0.1,0-0.2c-1.1-4.4-4-8.1-8-10.2c-2.4-1.1-4.9-1.8-7.5-1.9c-16.3-1-20.3,18-20.3,28.2
			c0,11.7,8,27.4,20,27.4c9.7,0,14.1-7.5,16-12.5c0.3-1.3,0.7-2.5,1-3.7L382.4,40.8L382.4,40.8z M403,56.4V1.3h-11.5v0.5
			c0.5,0,4.6,0.8,4.6,3.5v51.1c0,1-0.8,1.8-1.7,1.8c0,0,0,0,0,0l0,0v0.5h10.3v-0.5c-0.9,0-1.7-0.7-1.7-1.6c0,0,0,0,0,0
			C403,56.5,403,56.5,403,56.4 M799.4,56.4V1.3H788v0.5c0.5,0,4.7,0.8,4.7,3.5v51.1c0,1-0.8,1.8-1.8,1.8c0,0,0,0,0,0l0,0v0.5h10.2
			v-0.5c-0.9,0-1.7-0.7-1.7-1.6c0,0,0,0,0,0C799.4,56.5,799.4,56.5,799.4,56.4 M222.7,1.9v0.6c2.3,0,3.3,1.5,2.7,3.1l-16.1,42.7
			L193.3,6.7c-1.2-3.2,0.9-4.2,3.4-4.2V1.9h-19.8v0.6c3.6-0.2,7,2,8.3,5.4l19.4,50.8h1.9l19.9-52.6c0.9-2.1,3-3.5,5.3-3.6V1.9H222.7
			z M823,58.7c8,0,12.6-5.5,12.6-11.2c0-4.8-3.6-7.7-8.4-9.2l-5.8-1.9c-4.6-1.4-7-2.9-7-6.2c0-3.9,2.9-6.2,8-6.2
			c5.4,0,7.4,4.2,8.9,8.9h0.4v-6.6c-2.6-2.2-5.9-3.4-9.3-3.4c-6.5,0-11.4,4.5-11.4,10.4c0,7,4.6,8.5,7.8,9.7l6.1,2.1
			c2.7,0.9,5.1,2.1,5.1,6.2c0.3,3.3-2.2,6.3-5.5,6.5c-0.3,0-0.6,0-1,0c-8,0-11.1-6.1-12.5-11h-0.4V54
			C814.2,56.9,818.6,58.5,823,58.7 M661.3,54.8c0.9,2,2.9,3.3,5,3.4v0.5h-16.1v-0.5c0.7,0,3.5-0.7,2.5-3.3l-6.6-17.5H627l-6.9,18.3
			c-0.8,2.2,1.8,2.6,2.3,2.6v0.5h-7.7v-0.5c1.7,0.1,3.3-0.8,4.1-2.3l0,0l20.3-54.2h1.9l20.2,53l0,0 M636.6,12.2l-8.5,22.4H645
			L636.6,12.2z M692.9,22.8c-6.7,0-9.5,5.8-10.4,8.9h-0.1v-7.9H674v0.4c0.8,0.1,1.5,0.7,1.7,1.5v31.1c-0.1,0.8-0.9,1.4-1.7,1.4v0.5
			h10.2v-0.5c-0.8,0.1-1.5-0.4-1.7-1.2V38.4c0-8.8,4.9-14,8.2-14c1.8,0,2.8,1.3,2.8,3.4v3.7c0,1.4,0.9,2.3,3.2,2.3
			c1.9,0,3.2-0.9,3.2-2.3C699.9,25.3,697.8,22.8,692.9,22.8 M265.8,56.7c-1.7,1.3-3.8,2-5.9,1.9c-5.1,0-7-2.3-7.8-6.1v-0.2v0.4
			c-3,3.6-7.4,5.7-12.1,5.8c-5,0-8.6-2.8-8.6-8c0-9.8,13.3-11.9,20.8-11.6h0.2c0-2.8,0-5.4,0-7.1c0-5.1-1.4-8.1-6.6-8.1
			c-3.5,0-7.3,1-7.3,4.9v3.6c-0.1,1.5-1.3,2.7-2.8,2.6c0,0,0,0,0,0h-0.2c-3.5,0-3.4-1.4-3.4-3.4c0-4.7,5.7-8.7,13.8-8.7
			c9.7,0,13.1,5.3,13.1,10.9v19.1c0,3,1.1,3.9,2.7,4.1c1.3,0.3,2.8,0.1,4-0.6L265.8,56.7z M251.7,50.6c0.3-0.9,0.5-1.8,0.5-2.7
			c0-1,0-2.1,0-3.3c0-0.1,0-0.3,0-0.5v-4c-5.2,0-14.2,1-14.2,7.7c-0.3,3.8,2.5,7.2,6.4,7.5c0,0,0,0,0,0h0.9c2.9-0.2,5.4-2.1,6.4-4.9
			 M306.1,56.3V33.4c0-7.3-4.8-10.6-11.8-10.6c-0.5,0-1,0-1.4,0h-0.4c-0.3,0-0.7,0.1-1,0.2H291c-0.3,0-0.6,0.1-0.9,0.2
			c-0.1,0-0.2,0-0.4,0c-0.3,0.1-0.7,0.2-1,0.4h-0.2c-1.4,0.6-2.7,1.5-3.9,2.6l0,0c-0.3,0.2-0.5,0.4-0.7,0.7c0,0,0,0.1,0,0.1
			c-0.6,0.6-1.2,1.4-1.6,2.2l-0.1,0.1c-0.1,0.2-0.2,0.4-0.3,0.6v-6.1h-9.5v0.4c0.9,0,1.6,0.7,1.6,1.5v30.9c-0.1,0.8-0.8,1.5-1.6,1.6
			v0.5h10v-0.5c-0.9-0.1-1.6-0.9-1.6-1.8V38.6c0-0.6,0-1.2,0-1.7c0-0.2,0.1-0.4,0.1-0.6c0-0.3,0.1-0.7,0.2-1.1c0-0.4,0-0.3,0.1-0.5
			c1-5.5,5.6-9.5,11.2-9.8h0.2c4.9,0,6.2,1.5,6.6,6.6c0,0.9,0.1,1.9,0.1,2.8v22c-0.1,1-0.8,1.7-1.8,1.8v0.5h10.2v-0.5
			C306.7,58.1,306,57.3,306.1,56.3C306.1,56.4,306.1,56.4,306.1,56.3L306.1,56.3 M513.7,0.2c-4.6,0.4-8.9,2.7-11.6,6.5
			c-1.9,2.6-3.5,5.8-3.5,13.1v1.9c-0.3,1.6-2.1,4.1-3.9,4.1c1.4,0,2.7-0.3,3.9-1V57c-0.2,0.8-0.8,1.3-1.6,1.4v0.4h10v-0.4
			c-0.8,0-1.4-0.6-1.5-1.3V26h7.7v-2.1h-7.7V13c0-8.1,3.6-11.6,8-11.6c1.9,0,4.4,0.8,4.4,3.6v4c0,1.3,0.9,2.2,3.2,2.2
			s3.2-0.9,3.2-2.2c0-4.8-1.6-8.9-10.3-8.9 M593.9,34.8c-3.3,0-7.5,4-9.9,7.3c-1.2,1.5-3.5,5.8-5,8.1c4.1,4.7,8.5,8,12.9,4.9
			l0.3,0.5c-4.8,4.5-12.3,4.4-16.9-0.3l0,0l0,0c0,0-0.3-0.3-0.4-0.4c-3.1,2.9-7.3,4.5-11.6,4.4c-12.6,0.5-15.9-7.4-15.9-12.6
			c0-7,5.8-10.2,9.2-11.4l0,0l1.2-0.3l0.8-0.2l-1.1-1.3c-2-2.1-3.2-4.8-3.3-7.7c-0.1-5.7,4.5-10.4,10.2-10.5h0.7
			c6.5,0,10.3,3.7,10.3,9.3c0,0.3,0,0.6,0,0.9c0,0.2,0,0.3,0,0.5c0,0,0,0.1,0,0.1c-0.2,0.7-0.4,1.4-0.8,2l0,0
			c-0.1,0.2-0.2,0.3-0.3,0.5c-0.2,0.3-0.5,0.6-0.7,0.9c-2,2.1-4.6,3.6-7.5,4.2l2.7,3.6c3.5,4.6,6.2,8,9.7,12.1
			c0.3-0.4,0.6-0.8,0.9-1.3c2.2-4.3,3.6-9.1,3.9-13.9h10.9v0.7 M563,29.8c0.9,1,1.6,1.9,2.3,2.9c3.4-1.5,4.8-3.5,5.3-8.3
			c0-3.9-2.3-8.3-6.4-8.3h-0.6C560.2,16.6,556.6,21.8,563,29.8 M573.7,54.6c0.2-0.2,0.4-0.4,0.7-0.6l-0.2-0.3
			c-8.3-10.3-12.5-15.5-14.5-17.9c-0.8,0.4-1.6,0.9-2.3,1.5c-1.1,0.9-1.9,2.1-2.4,3.5l0,0l0,0c-0.4,1.3-0.6,2.6-0.5,3.9
			c0.5,3.4,1.9,6.6,4.3,9.1c3.3,3.6,8.7,4.5,13,2.1c0.1,0,0.2-0.1,0.2-0.1l0.6-0.3C572.9,55.2,573.3,54.9,573.7,54.6 M446.2,51.1
			c-2.1,3.5-6.2,7.7-15,7.7c-8.2,0-16.1-7.1-16.1-17.8c0-8,5.2-15.7,12.5-17.7l0,0c1.2-0.3,2.4-0.5,3.6-0.5h1.3h0.1
			c1,0,2.1,0.2,3.1,0.4l0,0c7.1,1.3,12.1,7.6,11.7,14.8v0.3h-24.7c0,1.1,0.2,3.3,0.3,4.7c1,7.3,6,13.8,12.3,13.8
			c2,0,3.9-0.6,5.5-1.8c1.3-1.2,2.4-2.6,3.1-4.2h2L446.2,51.1z M425.8,28.2c-1.1,2.7-1.7,5.6-1.9,8.6h16.4c0-5.4-2.2-12.7-8.3-12.7
			h-0.9C428.7,24.5,426.8,26.1,425.8,28.2 M485.4,51.2c-2.1,3.5-6.2,7.7-15,7.7c-8.2,0-16.1-7.1-16.1-17.8c0-8,5.2-15.7,12.4-17.7
			l0,0c1.2-0.3,2.4-0.5,3.6-0.5h1.3h0.1c1,0.1,2,0.2,3,0.4l0,0c7.1,1.3,12.1,7.7,11.7,14.8v0.3h-24.4c0,1.1,0.2,3.3,0.3,4.7
			c1,7.3,6,13.8,12.4,13.8c2,0,3.9-0.6,5.4-1.8c1.3-1.1,2.4-2.6,3.1-4.2L485.4,51.2L485.4,51.2z M465.3,28.2
			c-1.1,2.7-1.8,5.6-1.9,8.6h16.4c0-5.4-2.2-12.7-8.3-12.7h-0.8C468.3,24.5,466.3,26.1,465.3,28.2 M781.1,51c-2,3.5-6.2,7.7-15,7.7
			c-8.2,0-16.1-7.1-16.1-17.8c0-8.1,5.2-15.8,12.4-17.8l0,0c1.2-0.3,2.4-0.5,3.6-0.5c0.4,0,0.9,0,1.3,0h0.1c1,0,2.1,0.2,3.1,0.4l0,0
			c7.1,1.3,12.1,7.6,11.7,14.8v0.3h-24.3c0,1.6,0.1,3.2,0.3,4.8c1,7.3,6,13.8,12.3,13.8c2,0,3.9-0.6,5.5-1.8
			c1.3-1.2,2.3-2.6,3.1-4.1L781.1,51L781.1,51z M761,28c-1.1,2.7-1.7,5.6-1.9,8.6h16.4c0-5.5-2.2-12.7-8.3-12.7h-0.9
			C764,24.3,762,25.8,761,28 M737.3,28.5c2.6,3.5,3.9,7.7,3.9,12.1c0,10.6-7.2,18.1-16.3,18.1c-0.3,0-0.6,0-0.9,0
			c-1.2-0.1-2.5-0.4-3.6-0.8c-1.6-0.6-2.9-1.8-3.7-3.3V80h-11.5v-0.5c0.5,0,4.6-0.8,4.6-3.5V25.8c0-0.7-0.6-1.2-1.3-1.2h-0.1v-0.5
			h8.2v4.2c2.8-3.1,6.8-4.7,11-4.6C731.3,23.7,734.9,25.5,737.3,28.5 M723,56.8c7.5,0,11.2-8.6,11.2-16.5c0.1-4-1.1-8-3.4-11.2
			c-1.7-2.2-4.4-3.3-7.1-3.1c-2.5,0-7.1,2.7-7.1,6.7c0,0.4,0,0.7,0,1.1V50c0.1,0.7,0.3,1.4,0.5,2.1c0.5,2,2,3.6,3.9,4.3
			c0.6,0.3,1.3,0.4,1.9,0.4"/>
	</g>
</g>
</svg>
