<?xml version="1.0" encoding="utf-8"?>
<!-- Generator: Adobe Illustrator 24.1.2, SVG Export Plug-In . SVG Version: 6.00 Build 0)  -->
<svg version="1.1" id="Слой_1" xmlns="http://www.w3.org/2000/svg" xmlns:xlink="http://www.w3.org/1999/xlink" x="0px" y="0px"
	 viewBox="0 0 1080 80" style="enable-background:new 0 0 1080 80;" xml:space="preserve">
<style type="text/css">
	.st0{fill:#FFFFFF;}
</style>
<g id="surface0" transform="matrix(16.484276,0,0,19.273328,-4499.1021,-1890.4643)">
	<path id="path2438" class="st0" d="M307.9,100.2h0.5l-0.2-0.7L307.9,100.2 M307.2,101.4c0,0,0.1-0.1,0.1-0.1l1.2-2.3l0.5,2.2
		c0,0,0.1,0.2,0.1,0.2c0,0-0.2,0-0.3,0c0-0.1-0.3-1.1-0.3-1.1h-0.6c0,0-0.5,1-0.5,1.1C307.4,101.4,307.2,101.4,307.2,101.4z
		 M309.5,100.7c0,0.8,1,0.8,1,0l0-1.6l0.3,0c-0.1,0.1-0.1,0.3-0.1,0.5c0,0.1-0.1,1.1-0.1,1.2c-0.1,1.1-1.3,0.9-1.3,0.1
		c0-0.1,0-1.5,0-1.5c0-0.1,0-0.2-0.1-0.2c0,0,0.4,0,0.4,0L309.5,100.7 M310.9,99.1c2-0.3,1.5,1.1,0.8,1.2c0,0,0.8,1,0.9,1.1
		c0,0,0-2.1,0-2.1c0-0.2-0.1-0.2-0.1-0.2h1.2v0.2c0,0-0.3-0.1-0.8-0.1l0,1h0.8v0.1h-0.8v0.9c0,0.1,0.1,0.1,0.1,0.1
		c0.5,0,0.9-0.1,0.9-0.1l-0.1,0.2c0,0-1.1,0-1.1,0c0,0.1,0.3,0.4,0.5,0.5c-0.1,0-0.5-0.2-0.6-0.3c0,0-1.1-1.1-1.1-1.2
		c1-0.2,0.7-1.4-0.1-1.2l-0.1,2.2h-0.3c0,0,0-0.1,0.1-0.2l0.1-1.9C311,99.2,311,99.1,310.9,99.1 M302.9,101.4c0,0,0-2.1,0-2.1
		c0-0.1,0-0.2-0.1-0.2h0.4l0,2.2c0,0,0,0.1,0.1,0.1C303.2,101.4,302.9,101.4,302.9,101.4 M303.4,99.1h0.4l1.5,2v-2h1.8l0.1-0.7
		c0-0.1,0-0.1,0-0.2h0.4l-0.9,3.7c0,0.1,0,0.2,0.1,0.2c0.4,0,1.3-0.1,1.7-0.2l-0.2,0.3h-2c0,0,0.1-0.1,0.1-0.2l0.6-2.7
		c-0.2-0.1-0.5-0.1-0.7-0.1l-0.1,2c0,0.1,0,0.1,0,0.2c0,0-0.3,0-0.3,0c0-0.1,0-0.1,0-0.2l0-2h-0.4c-0.1,0-0.1,0.1-0.1,0.2l-0.1,2.2
		l-1.7-2.1l0,2c0,0-0.2,0-0.2,0c0,0,0.1-0.1,0.1-0.2l0.1-1.9L303.4,99.1 M317.4,99.1v0.2c-0.2-0.1-0.4-0.1-0.6-0.1l-0.1,2.1
		c0,0.1,0,0.1,0,0.2c0,0-0.3,0-0.3,0c0-0.1,0-0.1,0-0.2l0-2.1c0,0-0.4,0-0.4,0c-0.1,0-0.1,0.1-0.1,0.2c0,0-0.1,2.1-0.1,2.2
		c0,0-1.7-2.1-1.7-2.1l0,2c0,0-0.2,0-0.2,0c0-0.1,0-0.1,0-0.2c0,0,0.1-1.8,0.1-1.9c0,0-0.1-0.2-0.2-0.2c0.1,0,0.4,0,0.4,0l1.5,2v-2
		H317.4 M301.6,100.2h0.5l-0.2-0.7L301.6,100.2 M301.6,100.3l-0.6,1.3c-0.4,0.8-1.4,0.8-2,0.2l0.1-0.3c0.9,1.4,2.3,0.3,1.5-0.7
		l-1.1-1.3c-0.8-0.9-1.2,0.1-0.8,0.4l0.6,0.5c0.5,0.3,0.3,1-0.3,1.1c-0.3,0-0.6-0.1-0.8-0.2l-0.1,0.2H297c0,0,0-0.1,0-0.2l0-2
		c0,0,0,0,0,0l-1.1,2.3l-0.5-2.1c0-0.1,0,0,0,0c-0.1,0.1-0.4,0.6-0.5,0.7c0,0.1-0.1,0.1-0.1,0.2c0,0.1-0.4,1.6-0.4,1.7
		c0,0.1,0,0.2,0,0.2H294c0,0,0.1-0.1,0.1-0.1l0.3-1.6c0.1-0.3,0-0.6,0-0.6c-0.2-1.1-0.2-1.6-0.3-1.7h0.3c0,0.1,0.4,1.8,0.4,1.9
		c0,0,1.2-1.9,1.2-1.9h0.3c0,0-0.2,0.2-0.2,0.2c0,0-0.4,0.6-0.5,0.6l0.4,2l0.8-1.9h1.3v0.2c-0.1-0.1-0.7-0.2-0.9-0.1l0,1
		c0,0.1,0,0.1,0,0.1l0.8,0v0.1h-0.9l0,0.9c0,0.1,0,0.1,0.1,0.1c0.3,0,0.7,0,0.9-0.1l0.1-0.2c0.3,0.3,0.5,0.4,0.8,0.4
		c0.3-0.1,0.5-0.4,0-0.8l-0.5-0.3c-0.7-0.5-0.1-1.6,0.8-1c0-1,1.2-1.4,2.1-0.7l-0.1,0.3c-0.8-1.2-2.1-0.2-1.5,0.7l0.9,1.2
		c0.2,0.3,0.2,0.4,0.2,0.4l1.1-2l0.5,2.2c0,0.1,0.1,0.1,0.1,0.2c0,0-0.3,0-0.3,0c0,0-0.3-1-0.3-1L301.6,100.3"/>
</g>
</svg>
