<?xml version="1.0" encoding="utf-8"?>
<!-- Generator: Adobe Illustrator 24.1.2, SVG Export Plug-In . SVG Version: 6.00 Build 0)  -->
<svg version="1.1" id="Слой_1" xmlns="http://www.w3.org/2000/svg" xmlns:xlink="http://www.w3.org/1999/xlink" x="0px" y="0px"
	 viewBox="0 0 1080 252" style="enable-background:new 0 0 1080 252;" xml:space="preserve">
<style type="text/css">
	.st0{fill:#FFFFFF;}
</style>
<g>
	<g>
		<path class="st0" d="M151.3,14.5c0,0-0.1,0.1-0.3,0.2c-23.9,15.7-54.9,15.7-78.8,0c-0.2-0.1-0.3-0.2-0.3-0.2L60.7,25.4
			c0,0,39.4,19.7,49.4,97.6h3c10-77.9,49.4-97.6,49.4-97.6L151.3,14.5z"/>
		<path class="st0" d="M151.3,237.6c0,0-0.1-0.1-0.3-0.2c-23.9-15.7-54.9-15.7-78.8,0c-0.2,0.1-0.3,0.2-0.3,0.2l-11.2-10.9
			c0,0,39.4-19.7,49.4-97.6h3c10,77.9,49.4,97.6,49.4,97.6L151.3,237.6z"/>
		<path class="st0" d="M0,86.3c0,0,0.1,0.1,0.2,0.3c15.7,23.9,15.7,54.9,0,78.8c-0.1,0.2-0.2,0.3-0.2,0.3l10.9,11.2
			c0,0,19.7-39.4,97.6-49.4v-3c-77.9-10-97.6-49.4-97.6-49.4L0,86.3z"/>
		<path class="st0" d="M223.1,86.3c0,0-0.1,0.1-0.2,0.3c-15.7,23.9-15.7,54.9,0,78.8c0.1,0.2,0.2,0.3,0.2,0.3l-10.9,11.2
			c0,0-19.7-39.4-97.6-49.4v-3c77.9-10,97.6-49.4,97.6-49.4L223.1,86.3z"/>
		<g>
			<path class="st0" d="M69.2,75.8L58.5,73l2.8,10.7L70,98.5c13.5,4.7,38.6,26.1,38.6,26.1l1.7-1.7c0,0-21.5-25-26.1-38.6L69.2,75.8
				z"/>
			<path class="st0" d="M161.8,168.4l2.8,10.7l-10.7-2.8l-14.9-8.6c-4.7-13.5-26.1-38.6-26.1-38.6l1.7-1.7c0,0,25,21.5,38.6,26.1
				L161.8,168.4z"/>
		</g>
		<g>
			<path class="st0" d="M161.8,83.7l2.8-10.7l-10.7,2.8l-14.9,8.6c-4.7,13.5-26.1,38.6-26.1,38.6l1.7,1.7c0,0,25-21.5,38.6-26.1
				L161.8,83.7z"/>
			<path class="st0" d="M69.2,176.3l-10.7,2.8l2.8-10.7l8.6-14.9c13.5-4.7,38.6-26.1,38.6-26.1l1.7,1.7c0,0-21.5,25-26.1,38.6
				L69.2,176.3z"/>
		</g>
	</g>
	<g>
		<path class="st0" d="M579.7,14.5c0,0-0.1,0.1-0.3,0.2c-23.9,15.7-54.9,15.7-78.8,0c-0.2-0.1-0.3-0.2-0.3-0.2l-11.2,10.9
			c0,0,39.4,19.7,49.4,97.6h3c10-77.9,49.4-97.6,49.4-97.6L579.7,14.5z"/>
		<path class="st0" d="M579.7,237.6c0,0-0.1-0.1-0.3-0.2c-23.9-15.7-54.9-15.7-78.8,0c-0.2,0.1-0.3,0.2-0.3,0.2l-11.2-10.9
			c0,0,39.4-19.7,49.4-97.6h3c10,77.9,49.4,97.6,49.4,97.6L579.7,237.6z"/>
		<path class="st0" d="M428.4,86.3c0,0,0.1,0.1,0.2,0.3c15.7,23.9,15.7,54.9,0,78.8c-0.1,0.2-0.2,0.3-0.2,0.3l10.9,11.2
			c0,0,19.7-39.4,97.6-49.4v-3c-77.9-10-97.6-49.4-97.6-49.4L428.4,86.3z"/>
		<path class="st0" d="M651.6,86.3c0,0-0.1,0.1-0.2,0.3c-15.7,23.9-15.7,54.9,0,78.8c0.1,0.2,0.2,0.3,0.2,0.3l-10.9,11.2
			c0,0-19.7-39.4-97.6-49.4v-3c77.9-10,97.6-49.4,97.6-49.4L651.6,86.3z"/>
		<g>
			<path class="st0" d="M497.7,75.8L487,73l2.8,10.7l8.6,14.9c13.5,4.7,38.6,26.1,38.6,26.1l1.7-1.7c0,0-21.5-25-26.1-38.6
				L497.7,75.8z"/>
			<path class="st0" d="M590.2,168.4l2.8,10.7l-10.7-2.8l-14.9-8.6c-4.7-13.5-26.1-38.6-26.1-38.6l1.7-1.7c0,0,25,21.5,38.6,26.1
				L590.2,168.4z"/>
		</g>
		<g>
			<path class="st0" d="M590.2,83.7L593,73l-10.7,2.8l-14.9,8.6c-4.7,13.5-26.1,38.6-26.1,38.6l1.7,1.7c0,0,25-21.5,38.6-26.1
				L590.2,83.7z"/>
			<path class="st0" d="M497.7,176.3l-10.7,2.8l2.8-10.7l8.6-14.9c13.5-4.7,38.6-26.1,38.6-26.1l1.7,1.7c0,0-21.5,25-26.1,38.6
				L497.7,176.3z"/>
		</g>
	</g>
	<g>
		<path class="st0" d="M1008.1,14.5c0,0-0.1,0.1-0.3,0.2c-23.9,15.7-54.9,15.7-78.8,0c-0.2-0.1-0.3-0.2-0.3-0.2l-11.2,10.9
			c0,0,39.4,19.7,49.4,97.6h3c10-77.9,49.4-97.6,49.4-97.6L1008.1,14.5z"/>
		<path class="st0" d="M1008.1,237.6c0,0-0.1-0.1-0.3-0.2c-23.9-15.7-54.9-15.7-78.8,0c-0.2,0.1-0.3,0.2-0.3,0.2l-11.2-10.9
			c0,0,39.4-19.7,49.4-97.6h3c10,77.9,49.4,97.6,49.4,97.6L1008.1,237.6z"/>
		<path class="st0" d="M856.9,86.3c0,0,0.1,0.1,0.2,0.3c15.7,23.9,15.7,54.9,0,78.8c-0.1,0.2-0.2,0.3-0.2,0.3l10.9,11.2
			c0,0,19.7-39.4,97.6-49.4v-3c-77.9-10-97.6-49.4-97.6-49.4L856.9,86.3z"/>
		<path class="st0" d="M1080,86.3c0,0-0.1,0.1-0.2,0.3c-15.7,23.9-15.7,54.9,0,78.8c0.1,0.2,0.2,0.3,0.2,0.3l-10.9,11.2
			c0,0-19.7-39.4-97.6-49.4v-3c77.9-10,97.6-49.4,97.6-49.4L1080,86.3z"/>
		<g>
			<path class="st0" d="M926.1,75.8L915.4,73l2.8,10.7l8.6,14.9c13.5,4.7,38.6,26.1,38.6,26.1l1.7-1.7c0,0-21.5-25-26.1-38.6
				L926.1,75.8z"/>
			<path class="st0" d="M1018.7,168.4l2.8,10.7l-10.7-2.8l-14.9-8.6c-4.7-13.5-26.1-38.6-26.1-38.6l1.7-1.7c0,0,25,21.5,38.6,26.1
				L1018.7,168.4z"/>
		</g>
		<g>
			<path class="st0" d="M1018.7,83.7l2.8-10.7l-10.7,2.8l-14.9,8.6c-4.7,13.5-26.1,38.6-26.1,38.6l1.7,1.7c0,0,25-21.5,38.6-26.1
				L1018.7,83.7z"/>
			<path class="st0" d="M926.1,176.3l-10.7,2.8l2.8-10.7l8.6-14.9c13.5-4.7,38.6-26.1,38.6-26.1l1.7,1.7c0,0-21.5,25-26.1,38.6
				L926.1,176.3z"/>
		</g>
	</g>
</g>
</svg>
