<?xml version="1.0" encoding="utf-8"?>
<!-- Generator: Adobe Illustrator 24.1.2, SVG Export Plug-In . SVG Version: 6.00 Build 0)  -->
<svg version="1.1" id="Слой_1" xmlns="http://www.w3.org/2000/svg" xmlns:xlink="http://www.w3.org/1999/xlink" x="0px" y="0px"
	 viewBox="0 0 659.1 51.1" style="enable-background:new 0 0 659.1 51.1;" xml:space="preserve">
<g>
	<g>
		<path d="M22.1,4.5v45.9l-3.2-0.1l-3.2,0.2V4.5c-3.7,0-6.4,0-8,0.1C6.2,4.8,3.6,5,0,5.4l0.2-2.2L0,1.1h37.2l-0.2,2.2l0.2,2.2
			c-1.8-0.2-4-0.4-6.7-0.6C27.7,4.6,24.9,4.5,22.1,4.5z"/>
		<g>
			<path d="M75.5,26.6V9.5l2.6,0.2l2.6-0.2v40.9l-2.6-0.2l-2.6,0.2V29.8c-2,0-3.5,0-4.7-0.1c-4.8-0.2-7.4-0.2-7.8-0.2
				c-1.9,0-4.4,0.1-7.3,0.1c-3,0.1-4.7,0.1-5.3,0.1v20.6l-2.6-0.2l-2.6,0.2V9.5l2.6,0.2l2.6-0.2v17.1c2,0,4.5,0.1,7.5,0.1
				c3,0.1,4.7,0.1,5.1,0.1c1.9,0,3.5,0,4.7-0.1C72.4,26.7,75,26.6,75.5,26.6z"/>
			<path d="M96.7,12.3v15h9.3c0.8,0,1.8,0,3-0.1c1.3-0.1,2-0.1,2.3-0.1l-0.2,1.6l0.2,1.7c-0.7,0-1.7-0.1-3-0.2
				c-1.3-0.1-2.1-0.2-2.3-0.2h-9.3v17.4c1.3,0,3.4,0,6.2-0.1c2.9-0.1,4.4-0.1,4.6-0.1c1.1,0,1.9,0,2.4-0.1c0.5-0.1,1.5-0.2,3-0.4
				l-0.2,1.8l0.2,1.8H91.5V9.5h21.2l-0.2,1.7l0.2,1.7c-1.2-0.2-2.2-0.4-2.9-0.5c-0.8-0.1-1.6-0.1-2.4-0.1h-6H96.7z"/>
		</g>
	</g>
	<g>
		<path d="M148.5,50.4V1.1h15.3c5.5,0,9.5,0.9,12.1,2.7s3.9,4.5,3.9,8.2c0,3.9-1.5,7.1-4.6,9.5c-2.5,2-5.9,3.4-10.2,4.2l14.8,18.8
			l3.5,4l1.4,1.8l-4.2-0.2l-4.1,0.3l-4.6-6.3L163.4,33l-5.8-6.8l-2.7,0v24.1l-3.2-0.2L148.5,50.4z M154.8,3.6v19.9c0.4,0,1,0,1.6,0
			c0.6,0,1.3,0,2.1,0c1.1,0,2,0,3-0.1c0.9,0,1.8-0.2,2.7-0.4c2.7-0.6,4.9-1.8,6.7-3.6c1.7-1.8,2.6-4,2.6-6.7c0-5.2-2.7-8.2-8-9
			c-1-0.1-2.3-0.2-3.8-0.2c-0.8,0-2,0-3.5,0S155.5,3.6,154.8,3.6z"/>
		<g>
			<path d="M197.6,13.1v14.7h9.1c0.7,0,1.7,0,3-0.1c1.2-0.1,2-0.1,2.2-0.1l-0.2,1.5l0.2,1.6c-0.7,0-1.7-0.1-2.9-0.2
				c-1.2-0.1-2-0.2-2.3-0.2h-9.1v17.1c1.2,0,3.3,0,6.1-0.1c2.8-0.1,4.3-0.1,4.5-0.1c1.1,0,1.9,0,2.4-0.1c0.5-0.1,1.5-0.2,3-0.4
				l-0.2,1.8l0.2,1.8h-21.1V10.4h20.7l-0.2,1.7l0.2,1.7c-1.2-0.2-2.1-0.4-2.9-0.5c-0.7-0.1-1.5-0.1-2.4-0.1h-5.8H197.6z"/>
			<path d="M236.9,9.5l17.5,40.9l-3-0.2l-3.1,0.2c-1.4-4-2.6-7.2-3.6-9.7c-0.6-1.6-1.5-3.6-2.6-6.1h-14.8c-2.3,5.6-3.5,8.9-3.8,9.6
				c-0.6,1.6-1.2,3.6-2,6.1l-2.2-0.2l-2,0.2l18.2-40.8H236.9z M241.3,32.1l-6.4-14.9l-6.4,14.9H241.3z"/>
			<path d="M265.7,10.4v37c1.2,0,3.3,0,6.1-0.1c2.8-0.1,4.3-0.1,4.5-0.1c0.9,0,2.1-0.1,3.4-0.2c0.9-0.2,1.6-0.3,2.1-0.3l-0.2,1.8
				l0.2,1.8h-21.3V10.4l2.6,0.2L265.7,10.4z"/>
		</g>
	</g>
	<g>
		<path d="M314.8,40.6h0.7c1.5,2.5,3.1,4.3,4.8,5.4c1.9,1.3,4.3,2,7,2c2.9,0,5.3-1,7.2-3.1c1.9-2,2.9-4.5,2.9-7.4
			c0-3.6-1.9-6.5-5.8-8.5c-3.6-1.6-7.3-3.2-10.9-4.8c-3.9-2.3-5.8-5.8-5.8-10.4c0-4.4,1.6-7.9,4.8-10.4c2.9-2.3,6.7-3.5,11.2-3.5
			c1.9,0,3.8,0.3,5.6,0.9c1.8,0.6,3.4,1.4,4.7,2.6c-0.3,0.8-0.6,1.5-0.9,2.2c0,0.1-0.4,1.4-1.1,3.7h-0.7c-0.8-2-1.9-3.6-3.4-4.6
			s-3.3-1.6-5.5-1.6c-2.5,0-4.7,0.8-6.4,2.3c-1.8,1.6-2.6,3.6-2.6,6.1c0,3.6,1.9,6.5,5.8,8.5c3.6,1.6,7.3,3.2,10.9,4.8
			c3.9,2.3,5.9,5.6,5.9,9.9c0,5-1.7,9.1-5.2,12.1c-3.3,2.9-7.5,4.3-12.6,4.3c-2,0-4.1-0.4-6.5-1.1c-2.4-0.8-4.1-1.8-5.3-3
			c0.3-1,0.6-2,0.7-2.9C314.5,43.2,314.6,42,314.8,40.6z"/>
		<g>
			<path d="M365.7,13.2v37.2l-2.6-0.1l-2.6,0.2V13.2c-3,0-5.2,0-6.5,0.1c-1.3,0.1-3.4,0.3-6.3,0.6l0.2-1.8l-0.2-1.8h30.2l-0.2,1.8
				l0.2,1.8c-1.4-0.2-3.3-0.3-5.5-0.5C370.3,13.3,368,13.2,365.7,13.2z"/>
			<path d="M399.7,32.4v18l-2.6-0.2l-2.6,0.2V33.5l-14.3-23.1l3.3,0.2l3.2-0.2c1.3,2.5,3.2,6,5.8,10.5c2.6,4.5,4.3,7.5,5.3,9.1
				c0.6-0.7,1.8-2.5,3.4-5.4c1.2-2,2.7-4.8,4.6-8.2c1.1-2,2.1-4,3.2-6l2.3,0.2l2.3-0.2c-1.4,1.8-2.8,3.8-4.1,5.9L403,26.6
				c-0.8,1.2-1.4,2.2-1.8,3C400.7,30.4,400.2,31.3,399.7,32.4z"/>
			<path d="M425.1,10.4v37.1c1.2,0,3.3,0,6.1-0.1c2.8-0.1,4.3-0.1,4.5-0.1c0.9,0,2.1-0.1,3.4-0.2c0.9-0.2,1.6-0.3,2.1-0.3l-0.2,1.8
				l0.2,1.8H420V10.4l2.6,0.2L425.1,10.4z"/>
			<path d="M454.4,13.1v14.7h9.1c0.7,0,1.7,0,3-0.1c1.2-0.1,2-0.1,2.2-0.1l-0.2,1.5l0.2,1.6c-0.7,0-1.7-0.1-2.9-0.2
				c-1.2-0.1-2-0.2-2.3-0.2h-9.1v17.1c1.2,0,3.3,0,6.1-0.1c2.8-0.1,4.3-0.1,4.5-0.1c1.1,0,1.9,0,2.4-0.1c0.5-0.1,1.5-0.2,3-0.4
				l-0.2,1.8l0.2,1.8h-21.1V10.4H470l-0.2,1.7l0.2,1.7c-1.2-0.2-2.1-0.4-2.9-0.5c-0.7-0.1-1.5-0.1-2.4-0.1h-5.8H454.4z"/>
		</g>
	</g>
	<g>
		<path d="M502,50.1v-49h14.5c5.5,0,9.6,0.7,12.2,2.2c2.6,1.5,3.9,4.1,3.9,7.7c0,3.2-1.1,5.9-3.2,8.2s-4.9,3.8-8.2,4.6
			c3.3,0,6.2,0.8,8.6,2.5c3,2.1,4.5,5,4.5,8.8c0,5.1-2.2,9.2-6.5,12.2c-1.9,1.3-4.3,2.1-7.3,2.5c-1.8,0.2-4.5,0.4-7.9,0.4H502z
			 M508.3,3.7v18.9h3.2c2.1,0,3.8-0.1,5.1-0.3c1.3-0.2,2.7-0.6,4.1-1.2c3.7-1.6,5.5-4.5,5.5-8.7c0-3.2-1-5.5-3.1-6.8
			c-2.1-1.3-5.1-2-9.1-2H508.3z M508.3,25.5v22h7.2c3.6,0,6.5-1,8.7-3.1c2.3-2.1,3.4-4.8,3.4-8.1c0-4-1.4-6.8-4.2-8.6
			c-2.4-1.5-6-2.2-10.7-2.2H508.3z"/>
		<g>
			<path d="M549.8,10.4v37.2c1.2,0,3.3,0,6.1-0.1c2.8-0.1,4.3-0.1,4.5-0.1c0.9,0,2.1-0.1,3.5-0.2c0.9-0.2,1.6-0.3,2.1-0.3l-0.2,1.8
				l0.2,1.8h-21.3V10.4l2.6,0.2L549.8,10.4z"/>
			<path d="M592.8,51.1c-6.5,0-11.8-1.9-15.7-5.6c-3.9-3.8-5.9-8.8-5.9-15.1c0-6.3,2.1-11.4,6.3-15.3c4-3.7,9.2-5.6,15.4-5.6
				c6.1,0,11.2,1.6,15.2,4.7c4.6,3.6,7,8.7,7,15.3c0,6.5-2.1,11.7-6.2,15.7C604.7,49.1,599.4,51.1,592.8,51.1z M609.3,30
				c0-2.7-0.3-5-0.8-7.1c-0.5-2-1.5-4-2.9-5.8c-1.4-1.8-3.2-3.2-5.4-4.2c-2.1-1-4.4-1.5-6.8-1.5c-5.1,0-9.2,1.8-12.1,5.4
				c-3,3.6-4.4,8.3-4.4,14.3c0,5.7,1.6,10.2,4.7,13.5c2.9,3,6.7,4.6,11.3,4.6c5.5,0,9.8-2.4,12.8-7.1
				C608.2,38.3,609.3,34.3,609.3,30z"/>
			<path d="M657.8,17.4h-0.6c-1.6-1.8-3.6-3.2-5.9-4.2c-2.3-1-4.8-1.5-7.3-1.5c-5.1,0-9.2,1.6-12.3,4.8c-3.1,3.2-4.6,7.7-4.6,13.5
				c0,5.9,1.5,10.5,4.5,13.8c3,3.3,7.3,4.9,13,4.9c1.6,0,3.3-0.2,4.8-0.5c1.6-0.3,3-0.8,4.3-1.5v-15l2.6,0.2l2.6-0.2v16.5
				c-5.2,1.8-10.5,2.7-15.9,2.7c-7.1,0-12.6-2-16.4-5.9c-3.5-3.7-5.3-8.6-5.3-14.8c0-6.6,2.2-11.8,6.5-15.6
				c4.1-3.6,9.6-5.3,16.4-5.3c3.8,0,7.2,0.4,10.3,1.3c1.8,0.5,3.4,1.2,4.7,2.1c-0.2,0.4-0.4,1.1-0.6,1.9
				C658.2,15.7,658,16.6,657.8,17.4z"/>
		</g>
	</g>
</g>
</svg>
