<?xml version="1.0" encoding="utf-8"?>
<!-- Generator: Adobe Illustrator 24.1.2, SVG Export Plug-In . SVG Version: 6.00 Build 0)  -->
<svg version="1.1" id="Слой_1" xmlns="http://www.w3.org/2000/svg" xmlns:xlink="http://www.w3.org/1999/xlink" x="0px" y="0px"
	 viewBox="0 0 1080 1080" style="enable-background:new 0 0 1080 1080;" xml:space="preserve">
<path d="M708.9,719.4c108.7-59.8,182.6-175.5,182.6-308.2c0-193.8-157.7-351.5-351.5-351.5c-193.8,0-351.5,157.7-351.5,351.5
	c0,132.7,74,248.5,182.8,308.3C106.5,787.3,4.5,1010,0,1020.3h70.4c4.8-10.7,120.6-261.7,470.1-257.5
	c348.8-4.3,464.5,246.8,469.3,257.5h70.2C1075.5,1010,973.3,787.1,708.9,719.4z M251.3,411.2c0-159.2,129.6-288.8,288.8-288.8
	S828.9,252,828.9,411.2S699.3,700,540.1,700S251.3,570.5,251.3,411.2z"/>
</svg>
